<svg xmlns="http://www.w3.org/2000/svg" width="1450" height="920" viewBox="0 0 1450 920" role="img" aria-labelledby="title desc">
<title id="title">灵山小向导系统用例图</title>
<desc id="desc">灵山小向导项目软件工程图</desc>
<defs>
  <marker id="arrow" viewBox="0 0 10 10" refX="9" refY="5" markerWidth="8" markerHeight="8" orient="auto-start-reverse"><path d="M 0 0 L 10 5 L 0 10 z" fill="#173D34"/></marker>
  <marker id="arrow-accent" viewBox="0 0 10 10" refX="9" refY="5" markerWidth="8" markerHeight="8" orient="auto-start-reverse"><path d="M 0 0 L 10 5 L 0 10 z" fill="#B75538"/></marker>
  <filter id="shadow" x="-20%" y="-20%" width="140%" height="140%"><feDropShadow dx="0" dy="5" stdDeviation="7" flood-color="#173D34" flood-opacity="0.12"/></filter>
  <style>
    text { font-family: "Noto Sans CJK SC", "Noto Sans CJK JP", "Droid Sans Fallback", sans-serif; fill: #173D34; }
    .title { font-family: "Noto Serif CJK SC", "AR PL UMing CN", serif; font-size: 38px; font-weight: 700; }
    .subtitle { font-size: 18px; fill: #52645E; }
    .label { font-size: 22px; font-weight: 700; }
    .body { font-size: 19px; }
    .small { font-size: 16px; fill: #52645E; }
    .tiny { font-size: 14px; fill: #52645E; }
    .mono { font-family: "DejaVu Sans Mono", monospace; font-size: 16px; }
    .connector { stroke: #173D34; stroke-width: 2.5; fill: none; marker-end: url(#arrow); }
    .association { stroke: #52645E; stroke-width: 2; fill: none; }
    .dashed { stroke: #52645E; stroke-width: 2; stroke-dasharray: 9 8; fill: none; }
  </style>
</defs>
<rect width="1450" height="920" fill="#FBF8F0"/>
<text x="65" y="62" class="title" text-anchor="start">系统用例图</text>
<text x="65" y="94" class="subtitle" text-anchor="start">游客服务与景区运营两类角色共享同一导览平台</text>
<rect x="225" y="120" width="1000" height="735" rx="24" fill="#FFFFFF" fill-opacity="0.64" stroke="#173D34" stroke-width="3"/>
<text x="725" y="158" class="label" text-anchor="middle">灵山小向导·灵曦</text>
<line x1="725" y1="180" x2="725" y2="825" stroke="#B9C7C1" stroke-width="2" stroke-dasharray="10 9"/>
<text x="475" y="205" class="small" text-anchor="middle">游客端服务</text>
<text x="975" y="205" class="small" text-anchor="middle">景区管理服务</text>
<line x1="168" y1="430" x2="292" y2="270" stroke="#173D34" stroke-width="2.5"/>
<line x1="168" y1="430" x2="292" y2="375" stroke="#173D34" stroke-width="2.5"/>
<line x1="168" y1="430" x2="292" y2="480" stroke="#173D34" stroke-width="2.5"/>
<line x1="168" y1="430" x2="292" y2="585" stroke="#173D34" stroke-width="2.5"/>
<line x1="168" y1="430" x2="292" y2="690" stroke="#173D34" stroke-width="2.5"/>
<line x1="168" y1="430" x2="292" y2="795" stroke="#173D34" stroke-width="2.5"/>
<line x1="1282" y1="430" x2="1158" y2="285" stroke="#173D34" stroke-width="2.5"/>
<line x1="1282" y1="430" x2="1158" y2="410" stroke="#173D34" stroke-width="2.5"/>
<line x1="1282" y1="430" x2="1158" y2="535" stroke="#173D34" stroke-width="2.5"/>
<line x1="1282" y1="430" x2="1158" y2="660" stroke="#173D34" stroke-width="2.5"/>
<line x1="1282" y1="430" x2="1158" y2="785" stroke="#173D34" stroke-width="2.5"/>
<circle cx="112" cy="320" r="24" fill="#FFFFFF" stroke="#173D34" stroke-width="4"/><line x1="112" y1="344" x2="112" y2="425" stroke="#173D34" stroke-width="4"/><line x1="70" y1="378" x2="154" y2="378" stroke="#173D34" stroke-width="4"/><line x1="112" y1="425" x2="74" y2="475" stroke="#173D34" stroke-width="4"/><line x1="112" y1="425" x2="150" y2="475" stroke="#173D34" stroke-width="4"/><text x="112" y="518" class="label" text-anchor="middle">游客</text>
<circle cx="1338" cy="320" r="24" fill="#FFFFFF" stroke="#173D34" stroke-width="4"/><line x1="1338" y1="344" x2="1338" y2="425" stroke="#173D34" stroke-width="4"/><line x1="1296" y1="378" x2="1380" y2="378" stroke="#173D34" stroke-width="4"/><line x1="1338" y1="425" x2="1300" y2="475" stroke="#173D34" stroke-width="4"/><line x1="1338" y1="425" x2="1376" y2="475" stroke="#173D34" stroke-width="4"/><text x="1338" y="518" class="label" text-anchor="middle">景区管理员</text>
<ellipse cx="475" cy="270" rx="178" ry="43" fill="#E7F0EA" stroke="#173D34" stroke-width="2.5" filter="url(#shadow)"/><text x="475" y="277" class="body" text-anchor="middle"><tspan x="475" dy="0">文字 / 语音景区问答</tspan></text>
<ellipse cx="475" cy="375" rx="178" ry="43" fill="#E7F0EA" stroke="#173D34" stroke-width="2.5" filter="url(#shadow)"/><text x="475" y="370" class="body" text-anchor="middle"><tspan x="475" dy="0">数字人语音、口型</tspan><tspan x="475" dy="24">同步讲解</tspan></text>
<ellipse cx="475" cy="480" rx="178" ry="43" fill="#E7F0EA" stroke="#173D34" stroke-width="2.5" filter="url(#shadow)"/><text x="475" y="487" class="body" text-anchor="middle"><tspan x="475" dy="0">获取个性化游览路线</tspan></text>
<ellipse cx="475" cy="585" rx="178" ry="43" fill="#E7F0EA" stroke="#173D34" stroke-width="2.5" filter="url(#shadow)"/><text x="475" y="592" class="body" text-anchor="middle"><tspan x="475" dy="0">拍照识景并校准讲解</tspan></text>
<ellipse cx="475" cy="690" rx="178" ry="43" fill="#E7F0EA" stroke="#173D34" stroke-width="2.5" filter="url(#shadow)"/><text x="475" y="697" class="body" text-anchor="middle"><tspan x="475" dy="0">GPS / 景点码 / 手动定位</tspan></text>
<ellipse cx="475" cy="795" rx="178" ry="43" fill="#E7F0EA" stroke="#173D34" stroke-width="2.5" filter="url(#shadow)"/><text x="475" y="802" class="body" text-anchor="middle"><tspan x="475" dy="0">提交景点评分与建议</tspan></text>
<ellipse cx="975" cy="285" rx="178" ry="43" fill="#F5EEDC" stroke="#173D34" stroke-width="2.5" filter="url(#shadow)"/><text x="975" y="292" class="body" text-anchor="middle"><tspan x="975" dy="0">查看运营概览与热门咨询</tspan></text>
<ellipse cx="975" cy="410" rx="178" ry="43" fill="#F5EEDC" stroke="#173D34" stroke-width="2.5" filter="url(#shadow)"/><text x="975" y="417" class="body" text-anchor="middle"><tspan x="975" dy="0">维护知识文档并重建索引</tspan></text>
<ellipse cx="975" cy="535" rx="178" ry="43" fill="#F5EEDC" stroke="#173D34" stroke-width="2.5" filter="url(#shadow)"/><text x="975" y="542" class="body" text-anchor="middle"><tspan x="975" dy="0">配置数字人名称、形象和音色</tspan></text>
<ellipse cx="975" cy="660" rx="178" ry="43" fill="#F5EEDC" stroke="#173D34" stroke-width="2.5" filter="url(#shadow)"/><text x="975" y="667" class="body" text-anchor="middle"><tspan x="975" dy="0">查看情绪与满意度报告</tspan></text>
<ellipse cx="975" cy="785" rx="178" ry="43" fill="#F5EEDC" stroke="#173D34" stroke-width="2.5" filter="url(#shadow)"/><text x="975" y="792" class="body" text-anchor="middle"><tspan x="975" dy="0">分析历史游客并获得建议</tspan></text>
</svg>