<svg xmlns="http://www.w3.org/2000/svg" width="1510" height="1520" viewBox="0 0 1510 1520" role="img" aria-labelledby="title desc">
<title id="title">灵山小向导核心数据 ER 图</title>
<desc id="desc">灵山小向导项目软件工程图</desc>
<defs>
  <marker id="arrow" viewBox="0 0 10 10" refX="9" refY="5" markerWidth="8" markerHeight="8" orient="auto-start-reverse"><path d="M 0 0 L 10 5 L 0 10 z" fill="#173D34"/></marker>
  <marker id="arrow-accent" viewBox="0 0 10 10" refX="9" refY="5" markerWidth="8" markerHeight="8" orient="auto-start-reverse"><path d="M 0 0 L 10 5 L 0 10 z" fill="#B75538"/></marker>
  <filter id="shadow" x="-20%" y="-20%" width="140%" height="140%"><feDropShadow dx="0" dy="5" stdDeviation="7" flood-color="#173D34" flood-opacity="0.12"/></filter>
  <style>
    text { font-family: "Noto Sans CJK SC", "Noto Sans CJK JP", "Droid Sans Fallback", sans-serif; fill: #173D34; }
    .title { font-family: "Noto Serif CJK SC", "AR PL UMing CN", serif; font-size: 38px; font-weight: 700; }
    .subtitle { font-size: 18px; fill: #52645E; }
    .label { font-size: 22px; font-weight: 700; }
    .body { font-size: 19px; }
    .small { font-size: 16px; fill: #52645E; }
    .tiny { font-size: 14px; fill: #52645E; }
    .mono { font-family: "DejaVu Sans Mono", monospace; font-size: 16px; }
    .connector { stroke: #173D34; stroke-width: 2.5; fill: none; marker-end: url(#arrow); }
    .association { stroke: #52645E; stroke-width: 2; fill: none; }
    .dashed { stroke: #52645E; stroke-width: 2; stroke-dasharray: 9 8; fill: none; }
  </style>
</defs>
<rect width="1510" height="1520" fill="#FBF8F0"/>
<text x="65" y="62" class="title" text-anchor="start">核心数据 ER 图</text>
<text x="65" y="94" class="subtitle" text-anchor="start">SQLite 实体、逻辑会话键与历史数据导入关系</text>
<rect x="50" y="120" width="1410" height="790" rx="24" fill="#E7F0EA" fill-opacity="0.25" stroke="#B9C7C1" stroke-width="1.5"/>
<text x="78" y="155" class="label" text-anchor="start">实时交互与运营数据</text>
<rect x="50" y="955" width="1410" height="515" rx="24" fill="#EDF1F3" fill-opacity="0.65" stroke="#B9C7C1" stroke-width="1.5"/>
<text x="78" y="990" class="label" text-anchor="start">赛题历史游客数据</text>
<polyline points="750,245 245,245 245,300" fill="none" stroke="#173D34" stroke-width="2.5" stroke-linejoin="round" stroke-dasharray="9 8"/>
<polyline points="750,245 750,300" fill="none" stroke="#173D34" stroke-width="2.5" stroke-linejoin="round" stroke-dasharray="9 8"/>
<polyline points="750,245 1250,245 1250,300" fill="none" stroke="#173D34" stroke-width="2.5" stroke-linejoin="round" stroke-dasharray="9 8"/>
<polyline points="1090,520 1020,520 1020,620 920,620" fill="none" stroke="#173D34" stroke-width="2.5" stroke-linejoin="round"/>
<polyline points="1090,600 990,600 990,760 920,760" fill="none" stroke="#173D34" stroke-width="2.5" stroke-linejoin="round"/>
<polyline points="410,1155 585,1155" fill="none" stroke="#173D34" stroke-width="2.5" stroke-linejoin="round"/>
<polyline points="410,1195 500,1195 500,1015 1025,1015 1025,1155 1090,1155" fill="none" stroke="#173D34" stroke-width="2.5" stroke-linejoin="round"/>
<rect x="211" y="247" width="68" height="29" rx="8" fill="#FFFFFF" stroke="#B9C7C1" stroke-width="2"/><text x="245" y="268" class="tiny" text-anchor="middle">0..N</text>
<rect x="716" y="247" width="68" height="29" rx="8" fill="#FFFFFF" stroke="#B9C7C1" stroke-width="2"/><text x="750" y="268" class="tiny" text-anchor="middle">0..N</text>
<rect x="1216" y="247" width="68" height="29" rx="8" fill="#FFFFFF" stroke="#B9C7C1" stroke-width="2"/><text x="1250" y="268" class="tiny" text-anchor="middle">0..N</text>
<rect x="1014" y="502" width="68" height="29" rx="8" fill="#FFFFFF" stroke="#B9C7C1" stroke-width="2"/><text x="1048" y="523" class="tiny" text-anchor="middle">0..N</text>
<rect x="956" y="662" width="68" height="29" rx="8" fill="#FFFFFF" stroke="#B9C7C1" stroke-width="2"/><text x="990" y="683" class="tiny" text-anchor="middle">1 : N</text>
<rect x="466" y="1137" width="68" height="29" rx="8" fill="#FFFFFF" stroke="#B9C7C1" stroke-width="2"/><text x="500" y="1158" class="tiny" text-anchor="middle">1 : N</text>
<rect x="991" y="1177" width="68" height="29" rx="8" fill="#FFFFFF" stroke="#B9C7C1" stroke-width="2"/><text x="1025" y="1198" class="tiny" text-anchor="middle">1 : N</text>
<rect x="585" y="175" width="330" height="120" rx="12" fill="#F5EEDC" stroke="#173D34" stroke-width="2" filter="url(#shadow)"/><path d="M 585 223 H 915" stroke="#173D34" stroke-width="2"/><text x="601" y="207" class="label" text-anchor="start">session_id（逻辑会话键）</text><text x="601" y="246" class="tiny" text-anchor="start" fill="#52645E"></text><text x="661" y="246" class="mono" text-anchor="start">无独立会话表</text><line x1="597" y1="255" x2="903" y2="255" stroke="#D8E0DC" stroke-width="1"/><text x="601" y="276" class="tiny" text-anchor="start" fill="#52645E"></text><text x="661" y="276" class="mono" text-anchor="start">由应用层关联</text>
<rect x="80" y="300" width="330" height="240" rx="12" fill="#FFFFFF" stroke="#173D34" stroke-width="2" filter="url(#shadow)"/><path d="M 80 348 H 410" stroke="#173D34" stroke-width="2"/><text x="96" y="332" class="label" text-anchor="start">chat_logs</text><text x="96" y="371" class="tiny" text-anchor="start" fill="#B75538">PK</text><text x="156" y="371" class="mono" text-anchor="start">id TEXT</text><line x1="92" y1="380" x2="398" y2="380" stroke="#D8E0DC" stroke-width="1"/><text x="96" y="401" class="tiny" text-anchor="start" fill="#B75538">AK*</text><text x="156" y="401" class="mono" text-anchor="start">session_id TEXT</text><line x1="92" y1="410" x2="398" y2="410" stroke="#D8E0DC" stroke-width="1"/><text x="96" y="431" class="tiny" text-anchor="start" fill="#52645E"></text><text x="156" y="431" class="mono" text-anchor="start">role TEXT</text><line x1="92" y1="440" x2="398" y2="440" stroke="#D8E0DC" stroke-width="1"/><text x="96" y="461" class="tiny" text-anchor="start" fill="#52645E"></text><text x="156" y="461" class="mono" text-anchor="start">content TEXT</text><line x1="92" y1="470" x2="398" y2="470" stroke="#D8E0DC" stroke-width="1"/><text x="96" y="491" class="tiny" text-anchor="start" fill="#52645E"></text><text x="156" y="491" class="mono" text-anchor="start">meta JSON/TEXT</text><line x1="92" y1="500" x2="398" y2="500" stroke="#D8E0DC" stroke-width="1"/><text x="96" y="521" class="tiny" text-anchor="start" fill="#52645E"></text><text x="156" y="521" class="mono" text-anchor="start">created_at TEXT</text>
<rect x="585" y="300" width="330" height="300" rx="12" fill="#FFFFFF" stroke="#173D34" stroke-width="2" filter="url(#shadow)"/><path d="M 585 348 H 915" stroke="#173D34" stroke-width="2"/><text x="601" y="332" class="label" text-anchor="start">emotion_events</text><text x="601" y="371" class="tiny" text-anchor="start" fill="#B75538">PK</text><text x="661" y="371" class="mono" text-anchor="start">id TEXT</text><line x1="597" y1="380" x2="903" y2="380" stroke="#D8E0DC" stroke-width="1"/><text x="601" y="401" class="tiny" text-anchor="start" fill="#B75538">AK*</text><text x="661" y="401" class="mono" text-anchor="start">session_id TEXT</text><line x1="597" y1="410" x2="903" y2="410" stroke="#D8E0DC" stroke-width="1"/><text x="601" y="431" class="tiny" text-anchor="start" fill="#52645E"></text><text x="661" y="431" class="mono" text-anchor="start">source / transcript</text><line x1="597" y1="440" x2="903" y2="440" stroke="#D8E0DC" stroke-width="1"/><text x="601" y="461" class="tiny" text-anchor="start" fill="#52645E"></text><text x="661" y="461" class="mono" text-anchor="start">emotion_label / scores</text><line x1="597" y1="470" x2="903" y2="470" stroke="#D8E0DC" stroke-width="1"/><text x="601" y="491" class="tiny" text-anchor="start" fill="#52645E"></text><text x="661" y="491" class="mono" text-anchor="start">sentiment / valence</text><line x1="597" y1="500" x2="903" y2="500" stroke="#D8E0DC" stroke-width="1"/><text x="601" y="521" class="tiny" text-anchor="start" fill="#52645E"></text><text x="661" y="521" class="mono" text-anchor="start">aspects JSON/TEXT</text><line x1="597" y1="530" x2="903" y2="530" stroke="#D8E0DC" stroke-width="1"/><text x="601" y="551" class="tiny" text-anchor="start" fill="#52645E"></text><text x="661" y="551" class="mono" text-anchor="start">status / model_name</text><line x1="597" y1="560" x2="903" y2="560" stroke="#D8E0DC" stroke-width="1"/><text x="601" y="581" class="tiny" text-anchor="start" fill="#52645E"></text><text x="661" y="581" class="mono" text-anchor="start">created_at / completed_at</text>
<rect x="1090" y="300" width="330" height="270" rx="12" fill="#FFFFFF" stroke="#173D34" stroke-width="2" filter="url(#shadow)"/><path d="M 1090 348 H 1420" stroke="#173D34" stroke-width="2"/><text x="1106" y="332" class="label" text-anchor="start">feedback</text><text x="1106" y="371" class="tiny" text-anchor="start" fill="#B75538">PK</text><text x="1166" y="371" class="mono" text-anchor="start">id TEXT</text><line x1="1102" y1="380" x2="1408" y2="380" stroke="#D8E0DC" stroke-width="1"/><text x="1106" y="401" class="tiny" text-anchor="start" fill="#B75538">AK*</text><text x="1166" y="401" class="mono" text-anchor="start">session_id TEXT</text><line x1="1102" y1="410" x2="1408" y2="410" stroke="#D8E0DC" stroke-width="1"/><text x="1106" y="431" class="tiny" text-anchor="start" fill="#B75538">FK*</text><text x="1166" y="431" class="mono" text-anchor="start">attraction_id TEXT</text><line x1="1102" y1="440" x2="1408" y2="440" stroke="#D8E0DC" stroke-width="1"/><text x="1106" y="461" class="tiny" text-anchor="start" fill="#B75538">FK*</text><text x="1166" y="461" class="mono" text-anchor="start">emotion_event_id TEXT</text><line x1="1102" y1="470" x2="1408" y2="470" stroke="#D8E0DC" stroke-width="1"/><text x="1106" y="491" class="tiny" text-anchor="start" fill="#52645E"></text><text x="1166" y="491" class="mono" text-anchor="start">rating INTEGER</text><line x1="1102" y1="500" x2="1408" y2="500" stroke="#D8E0DC" stroke-width="1"/><text x="1106" y="521" class="tiny" text-anchor="start" fill="#52645E"></text><text x="1166" y="521" class="mono" text-anchor="start">comment / sentiment</text><line x1="1102" y1="530" x2="1408" y2="530" stroke="#D8E0DC" stroke-width="1"/><text x="1106" y="551" class="tiny" text-anchor="start" fill="#52645E"></text><text x="1166" y="551" class="mono" text-anchor="start">created_at TEXT</text>
<rect x="80" y="650" width="330" height="240" rx="12" fill="#F5EEDC" stroke="#173D34" stroke-width="2" filter="url(#shadow)"/><path d="M 80 698 H 410" stroke="#173D34" stroke-width="2"/><text x="96" y="682" class="label" text-anchor="start">avatar_settings</text><text x="96" y="721" class="tiny" text-anchor="start" fill="#B75538">PK</text><text x="156" y="721" class="mono" text-anchor="start">id = 1</text><line x1="92" y1="730" x2="398" y2="730" stroke="#D8E0DC" stroke-width="1"/><text x="96" y="751" class="tiny" text-anchor="start" fill="#52645E"></text><text x="156" y="751" class="mono" text-anchor="start">display_name TEXT</text><line x1="92" y1="760" x2="398" y2="760" stroke="#D8E0DC" stroke-width="1"/><text x="96" y="781" class="tiny" text-anchor="start" fill="#52645E"></text><text x="156" y="781" class="mono" text-anchor="start">avatar_id TEXT</text><line x1="92" y1="790" x2="398" y2="790" stroke="#D8E0DC" stroke-width="1"/><text x="96" y="811" class="tiny" text-anchor="start" fill="#52645E"></text><text x="156" y="811" class="mono" text-anchor="start">voice TEXT</text><line x1="92" y1="820" x2="398" y2="820" stroke="#D8E0DC" stroke-width="1"/><text x="96" y="841" class="tiny" text-anchor="start" fill="#52645E"></text><text x="156" y="841" class="mono" text-anchor="start">expression TEXT</text><line x1="92" y1="850" x2="398" y2="850" stroke="#D8E0DC" stroke-width="1"/><text x="96" y="871" class="tiny" text-anchor="start" fill="#52645E"></text><text x="156" y="871" class="mono" text-anchor="start">updated_at TEXT</text>
<rect x="585" y="650" width="335" height="240" rx="12" fill="#F5EEDC" stroke="#173D34" stroke-width="2" filter="url(#shadow)"/><path d="M 585 698 H 920" stroke="#173D34" stroke-width="2"/><text x="601" y="682" class="label" text-anchor="start">attractions</text><text x="601" y="721" class="tiny" text-anchor="start" fill="#B75538">PK</text><text x="661" y="721" class="mono" text-anchor="start">id TEXT</text><line x1="597" y1="730" x2="908" y2="730" stroke="#D8E0DC" stroke-width="1"/><text x="601" y="751" class="tiny" text-anchor="start" fill="#52645E"></text><text x="661" y="751" class="mono" text-anchor="start">scenic_area_id TEXT</text><line x1="597" y1="760" x2="908" y2="760" stroke="#D8E0DC" stroke-width="1"/><text x="601" y="781" class="tiny" text-anchor="start" fill="#52645E"></text><text x="661" y="781" class="mono" text-anchor="start">scenic_area TEXT</text><line x1="597" y1="790" x2="908" y2="790" stroke="#D8E0DC" stroke-width="1"/><text x="601" y="811" class="tiny" text-anchor="start" fill="#52645E"></text><text x="661" y="811" class="mono" text-anchor="start">attraction_name TEXT</text><line x1="597" y1="820" x2="908" y2="820" stroke="#D8E0DC" stroke-width="1"/><text x="601" y="841" class="tiny" text-anchor="start" fill="#52645E"></text><text x="661" y="841" class="mono" text-anchor="start">is_overall INTEGER</text><line x1="597" y1="850" x2="908" y2="850" stroke="#D8E0DC" stroke-width="1"/><text x="601" y="871" class="tiny" text-anchor="start" fill="#52645E"></text><text x="661" y="871" class="mono" text-anchor="start">source_document TEXT</text>
<rect x="80" y="1060" width="330" height="210" rx="12" fill="#F5EEDC" stroke="#173D34" stroke-width="2" filter="url(#shadow)"/><path d="M 80 1108 H 410" stroke="#173D34" stroke-width="2"/><text x="96" y="1092" class="label" text-anchor="start">dataset_imports</text><text x="96" y="1131" class="tiny" text-anchor="start" fill="#B75538">PK</text><text x="156" y="1131" class="mono" text-anchor="start">source_file TEXT</text><line x1="92" y1="1140" x2="398" y2="1140" stroke="#D8E0DC" stroke-width="1"/><text x="96" y="1161" class="tiny" text-anchor="start" fill="#52645E"></text><text x="156" y="1161" class="mono" text-anchor="start">source_path TEXT</text><line x1="92" y1="1170" x2="398" y2="1170" stroke="#D8E0DC" stroke-width="1"/><text x="96" y="1191" class="tiny" text-anchor="start" fill="#52645E"></text><text x="156" y="1191" class="mono" text-anchor="start">source_signature TEXT</text><line x1="92" y1="1200" x2="398" y2="1200" stroke="#D8E0DC" stroke-width="1"/><text x="96" y="1221" class="tiny" text-anchor="start" fill="#52645E"></text><text x="156" y="1221" class="mono" text-anchor="start">row_count INTEGER</text><line x1="92" y1="1230" x2="398" y2="1230" stroke="#D8E0DC" stroke-width="1"/><text x="96" y="1251" class="tiny" text-anchor="start" fill="#52645E"></text><text x="156" y="1251" class="mono" text-anchor="start">imported_at TEXT</text>
<rect x="585" y="1030" width="360" height="300" rx="12" fill="#FFFFFF" stroke="#173D34" stroke-width="2" filter="url(#shadow)"/><path d="M 585 1078 H 945" stroke="#173D34" stroke-width="2"/><text x="601" y="1062" class="label" text-anchor="start">tourism_visits</text><text x="601" y="1101" class="tiny" text-anchor="start" fill="#B75538">PK</text><text x="661" y="1101" class="mono" text-anchor="start">id INTEGER</text><line x1="597" y1="1110" x2="933" y2="1110" stroke="#D8E0DC" stroke-width="1"/><text x="601" y="1131" class="tiny" text-anchor="start" fill="#B75538">FK*</text><text x="661" y="1131" class="mono" text-anchor="start">source_file TEXT</text><line x1="597" y1="1140" x2="933" y2="1140" stroke="#D8E0DC" stroke-width="1"/><text x="601" y="1161" class="tiny" text-anchor="start" fill="#B75538">UK</text><text x="661" y="1161" class="mono" text-anchor="start">source_file + dataset_row</text><line x1="597" y1="1170" x2="933" y2="1170" stroke="#D8E0DC" stroke-width="1"/><text x="601" y="1191" class="tiny" text-anchor="start" fill="#52645E"></text><text x="661" y="1191" class="mono" text-anchor="start">tourist_id / nickname</text><line x1="597" y1="1200" x2="933" y2="1200" stroke="#D8E0DC" stroke-width="1"/><text x="601" y="1221" class="tiny" text-anchor="start" fill="#52645E"></text><text x="661" y="1221" class="mono" text-anchor="start">attraction_name / type</text><line x1="597" y1="1230" x2="933" y2="1230" stroke="#D8E0DC" stroke-width="1"/><text x="601" y="1251" class="tiny" text-anchor="start" fill="#52645E"></text><text x="661" y="1251" class="mono" text-anchor="start">visit_date / stay_duration</text><line x1="597" y1="1260" x2="933" y2="1260" stroke="#D8E0DC" stroke-width="1"/><text x="601" y="1281" class="tiny" text-anchor="start" fill="#52645E"></text><text x="661" y="1281" class="mono" text-anchor="start">各类消费 / group_size</text><line x1="597" y1="1290" x2="933" y2="1290" stroke="#D8E0DC" stroke-width="1"/><text x="601" y="1311" class="tiny" text-anchor="start" fill="#52645E"></text><text x="661" y="1311" class="mono" text-anchor="start">satisfaction INTEGER</text>
<rect x="1090" y="1060" width="330" height="210" rx="12" fill="#F5EEDC" stroke="#173D34" stroke-width="2" filter="url(#shadow)"/><path d="M 1090 1108 H 1420" stroke="#173D34" stroke-width="2"/><text x="1106" y="1092" class="label" text-anchor="start">tourism_attraction_contents</text><text x="1106" y="1131" class="tiny" text-anchor="start" fill="#B75538">PK</text><text x="1166" y="1131" class="mono" text-anchor="start">source_file + content_key</text><line x1="1102" y1="1140" x2="1408" y2="1140" stroke="#D8E0DC" stroke-width="1"/><text x="1106" y="1161" class="tiny" text-anchor="start" fill="#B75538">FK*</text><text x="1166" y="1161" class="mono" text-anchor="start">source_file TEXT</text><line x1="1102" y1="1170" x2="1408" y2="1170" stroke="#D8E0DC" stroke-width="1"/><text x="1106" y="1191" class="tiny" text-anchor="start" fill="#52645E"></text><text x="1166" y="1191" class="mono" text-anchor="start">attraction_name TEXT</text><line x1="1102" y1="1200" x2="1408" y2="1200" stroke="#D8E0DC" stroke-width="1"/><text x="1106" y="1221" class="tiny" text-anchor="start" fill="#52645E"></text><text x="1166" y="1221" class="mono" text-anchor="start">attraction_type TEXT</text><line x1="1102" y1="1230" x2="1408" y2="1230" stroke="#D8E0DC" stroke-width="1"/><text x="1106" y="1251" class="tiny" text-anchor="start" fill="#52645E"></text><text x="1166" y="1251" class="mono" text-anchor="start">attraction_content TEXT</text>
<rect x="440" y="1468" width="630" height="34" rx="10" fill="#FFFFFF" stroke="#B75538" stroke-width="2"/>
<text x="755" y="1491" class="small" text-anchor="middle">AK* / FK* 表示应用层关联；当前 SQLite 未声明 FOREIGN KEY 约束</text>
</svg>